<?xml version="1.0" standalone="no"?>
<!DOCTYPE svg PUBLIC "-//W3C//DTD SVG 20010904//EN"
 "http://www.w3.org/TR/2001/REC-SVG-20010904/DTD/svg10.dtd">
<svg version="1.0" xmlns="http://www.w3.org/2000/svg"
 width="500.000000pt" height="500.000000pt" viewBox="0 0 500.000000 500.000000"
 preserveAspectRatio="xMidYMid meet">
<metadata>
Created by potrace 1.14, written by Peter Selinger 2001-2017
</metadata>
<g transform="translate(0.000000,500.000000) scale(0.100000,-0.100000)"
fill="#000000" stroke="none">
<path d="M0 2504 c0 -1465 4 -2494 9 -2492 5 1 1128 1125 2496 2496 l2487
2492 -2496 0 -2496 0 0 -2496z m1755 1514 c8 -18 123 -316 254 -663 131 -346
242 -638 246 -648 7 -16 1 -18 -80 -15 l-88 3 -101 267 -101 268 -226 0 -225
0 -74 -192 c-40 -106 -86 -228 -102 -270 -16 -43 -35 -78 -42 -78 -8 0 83 254
241 668 139 367 256 673 258 680 8 22 25 13 40 -20z"/>
<path d="M1556 3547 c-55 -144 -102 -268 -104 -274 -3 -10 43 -13 208 -13 165
0 211 3 208 13 -36 102 -204 537 -208 537 -3 0 -50 -118 -104 -263z"/>
<path d="M2890 1740 l0 -860 143 0 c214 0 284 29 336 139 l26 56 0 665 0 665
-26 56 c-29 60 -75 103 -136 125 -25 9 -89 13 -190 14 l-153 0 0 -860z m280
827 c40 -20 70 -86 80 -179 13 -107 13 -1188 0 -1295 -16 -145 -63 -198 -168
-191 l-47 3 -3 838 -2 837 57 0 c32 0 69 -6 83 -13z"/>
</g>
</svg>
